# xmcd CD database file
#
# Track frame offsets:
#	150
#	13765
#	32337
#	50380
#	72955
#	93257
#	111867
#	132810
#	146680
#	173387
#	190320
#	208785
#	237810
#
# Disc length: 3490 seconds
#
# Revision: 0
# Processed by: cddbd v1.4PL0 Copyright (c) Steve Scherf et al.
# Submitted via: CDex 1.40Beta9
#
DISCID=a90da00d
DTITLE=Thump'r - Since My Youth
DYEAR=1900
DGENRE=Country
TTITLE0=You Are The One
TTITLE1=4 X 4
TTITLE2=Let It Go
TTITLE3=Since My Youth
TTITLE4=Just A Little Miracle
TTITLE5=Venice Knight/Night
TTITLE6=Time Four Cassandra
TTITLE7=Donna Jo
TTITLE8=Special Girl
TTITLE9=You and Me
TTITLE10=Return To Me
TTITLE11=Talk To Me
TTITLE12=Special Track (2002 Olympics)
EXTD=ID3G: 2
EXTT0=
EXTT1=
EXTT2=
EXTT3=
EXTT4=
EXTT5=
EXTT6=
EXTT7=
EXTT8=
EXTT9=
EXTT10=
EXTT11=
EXTT12=
PLAYORDER=
